<svg xmlns="http://www.w3.org/2000/svg" width="47.736842039219255" height="34.84210509804805" style=""><rect id="backgroundrect" width="100%" height="100%" x="0" y="0" fill="none" stroke="none" class="" style=""/><g class="currentLayer" style=""><title>Layer 1</title><path d="M8.07894742488861,2.1578946113586426 c-3.307,0 -6,2.693 -6,6 v20 c0,3.307 2.693,6 6,6 h32 c3.307,0 6,-2.693 6,-6 V8.157894611358643 c0,-3.307 -2.693,-6 -6,-6 H8.07894742488861 zm0,2 h32 c2.233,0 4,1.7670000000000003 4,4 v20 c0,2.233 -1.7670000000000003,4 -4,4 H8.07894742488861 a3.9699999999999998,3.9699999999999998 0 0 1 -4,-4 V8.157894611358643 c0,-2.233 1.7670000000000003,-4 4,-4 z" color="#000" style="font-feature-settings:normal;font-variant-alternates:normal;font-variant-caps:normal;font-variant-east-asian:normal;font-variant-ligatures:normal;font-variant-numeric:normal;font-variant-position:normal;font-variation-settings:normal;inline-size:0;isolation:auto;mix-blend-mode:normal;shape-margin:0;shape-padding:0;text-decoration-color:#000;text-decoration-line:none;text-decoration-style:solid;text-indent:0;text-orientation:mixed;text-transform:none" id="svg_1" class=""/><path d="M9.10794742488861,8.157894611358643 a1,1 0 0 0 -0.7360000000000002,0.2930000000000001 a1,1 0 0 0 0,1.4140000000000001 l12,12 c2.039,2.04 5.375,2.04 7.414,0 l12,-12 a1,1 0 0 0 0,-1.4140000000000001 a1,1 0 0 0 -1.4140000000000001,0 l-12,12 a3.228,3.228 0 0 1 -4.586,0 l-12,-12 a1,1 0 0 0 -0.6780000000000004,-0.2930000000000001 z" color="#000" style="font-feature-settings:normal;font-variant-alternates:normal;font-variant-caps:normal;font-variant-east-asian:normal;font-variant-ligatures:normal;font-variant-numeric:normal;font-variant-position:normal;font-variation-settings:normal;inline-size:0;isolation:auto;mix-blend-mode:normal;shape-margin:0;shape-padding:0;text-decoration-color:#000;text-decoration-line:none;text-decoration-style:solid;text-indent:0;text-orientation:mixed;text-transform:none" id="svg_2" class=""/><path d="M9.10794742488861,8.157894611358643 a1,1 0 0 0 -0.7360000000000003,0.29300000000000015 a1,1 0 0 0 0,1.4140000000000001 l12,12 c2.039,2.04 5.375,2.04 7.414,0 l12,-12 a1,1 0 0 0 0,-1.4140000000000001 a1,1 0 0 0 -1.4140000000000001,0 l-12,12 a3.228,3.228 0 0 1 -4.586,0 l-12,-12 a1,1 0 0 0 -0.6780000000000006,-0.29300000000000015 z" color="#000" style="font-feature-settings:normal;font-variant-alternates:normal;font-variant-caps:normal;font-variant-east-asian:normal;font-variant-ligatures:normal;font-variant-numeric:normal;font-variant-position:normal;font-variation-settings:normal;inline-size:0;isolation:auto;mix-blend-mode:normal;shape-margin:0;shape-padding:0;text-decoration-color:#000;text-decoration-line:none;text-decoration-style:solid;text-indent:0;text-orientation:mixed;text-transform:none" class="" id="svg_3"/></g></svg>