<svg xmlns="http://www.w3.org/2000/svg" width="49.94736847058559" height="34" style=""><rect id="backgroundrect" width="100%" height="100%" x="0" y="0" fill="none" stroke="none" class="" style=""/><g class="currentLayer" style=""><title>Layer 1</title><path d="M10.052631855010986,1.4999998807907104 c-3.307,0 -6,2.693 -6,6 v20 c0,3.307 2.693,6 6,6 h32 c3.307,0 6,-2.693 6,-6 V7.4999998807907104 c0,-3.307 -2.693,-6 -6,-6 H10.052631855010986 zm0,2 h32 c2.233,0 4,1.7670000000000003 4,4 v20 c0,2.233 -1.7670000000000003,4 -4,4 H10.052631855010986 a3.9699999999999998,3.9699999999999998 0 0 1 -4,-4 V7.4999998807907104 c0,-2.233 1.7670000000000003,-4 4,-4 z" color="#000" style="font-feature-settings:normal;font-variant-alternates:normal;font-variant-caps:normal;font-variant-east-asian:normal;font-variant-ligatures:normal;font-variant-numeric:normal;font-variant-position:normal;font-variation-settings:normal;inline-size:0;isolation:auto;mix-blend-mode:normal;shape-margin:0;shape-padding:0;text-decoration-color:#000;text-decoration-line:none;text-decoration-style:solid;text-indent:0;text-orientation:mixed;text-transform:none" id="svg_1" class=""/><path d="M11.081631855010986,7.4999998807907104 a1,1 0 0 0 -0.736000000000001,0.2930000000000003 a1,1 0 0 0 0,1.4140000000000001 l12,12 c2.039,2.04 5.375,2.04 7.414,0 l12,-12 a1,1 0 0 0 0,-1.4140000000000001 a1,1 0 0 0 -1.4140000000000001,0 l-12,12 a3.228,3.228 0 0 1 -4.586,0 l-12,-12 a1,1 0 0 0 -0.6780000000000014,-0.2930000000000003 z" color="#000" style="font-feature-settings:normal;font-variant-alternates:normal;font-variant-caps:normal;font-variant-east-asian:normal;font-variant-ligatures:normal;font-variant-numeric:normal;font-variant-position:normal;font-variation-settings:normal;inline-size:0;isolation:auto;mix-blend-mode:normal;shape-margin:0;shape-padding:0;text-decoration-color:#000;text-decoration-line:none;text-decoration-style:solid;text-indent:0;text-orientation:mixed;text-transform:none" id="svg_2" class=""/><path d="M11.081631855010986,7.4999998807907104 a1,1 0 0 0 -0.7360000000000011,0.2930000000000003 a1,1 0 0 0 0,1.4140000000000001 l12,12 c2.039,2.04 5.375,2.04 7.414,0 l12,-12 a1,1 0 0 0 0,-1.4140000000000001 a1,1 0 0 0 -1.4140000000000001,0 l-12,12 a3.228,3.228 0 0 1 -4.586,0 l-12,-12 a1,1 0 0 0 -0.6780000000000016,-0.2930000000000003 z" color="#000" style="font-feature-settings:normal;font-variant-alternates:normal;font-variant-caps:normal;font-variant-east-asian:normal;font-variant-ligatures:normal;font-variant-numeric:normal;font-variant-position:normal;font-variation-settings:normal;inline-size:0;isolation:auto;mix-blend-mode:normal;shape-margin:0;shape-padding:0;text-decoration-color:#000;text-decoration-line:none;text-decoration-style:solid;text-indent:0;text-orientation:mixed;text-transform:none" class="" id="svg_3"/></g></svg>